<svg width="400" height="108" viewBox="0 0 400 108" fill="none" xmlns="http://www.w3.org/2000/svg">
<path d="M285.998 47.2271C287.617 48.1058 289.31 48.7648 290.708 49.7898C293.873 52.2061 294.683 55.9404 295.418 59.6014C296.081 62.6034 296.67 65.6787 297.406 68.6807C298.142 71.5363 299.54 73.8793 302.999 74.099C301.527 77.2475 300.129 80.2495 298.657 83.398C293.137 82.8122 290.267 79.2244 288.648 73.8793C287.028 75.5634 285.704 76.8814 284.379 78.2726C283.569 79.1512 282.907 80.1031 282.171 80.9817C279.816 83.6176 280.699 83.4712 277.534 81.9336C269.954 78.1261 262.226 78.1993 254.572 81.7871C253.836 82.1532 253.1 82.4461 252.217 82.6658C253.983 79.0048 256.486 76.0027 259.945 73.8793C268.114 68.9736 276.43 69.2664 284.673 73.7329C285.262 74.0258 286.292 74.4651 286.513 74.2454C287.323 73.5132 288.427 72.4149 288.353 71.6095C287.617 65.3126 286.513 59.0888 284.158 53.158C283.937 52.5722 283.643 51.9132 283.201 51.4007C282.833 50.8881 282.024 50.1559 281.803 50.2292C281.067 50.5953 280.11 51.2542 279.89 51.9132C279.522 53.2312 279.522 54.6956 279.448 56.0868C279.154 61.7248 276.136 65.1661 270.837 66.8502C270.248 66.9966 269.733 67.2163 268.703 67.5824C269.365 66.2644 270.101 65.459 270.248 64.5803C270.69 62.1641 271.131 59.6746 271.205 57.1851C271.352 49.9363 271.499 42.6875 271.205 35.4387C270.911 29.4346 273.045 25.1146 278.344 22.1858C281.95 20.2088 285.336 18.0122 288.868 15.962C291.076 14.7173 292.475 15.0102 294.094 17.0604C296.67 20.3553 297.847 24.0895 297.553 28.1166C297.038 35.7315 293.579 41.8088 287.249 46.202C286.808 46.4949 286.44 46.861 285.998 47.2271ZM280.11 48.7648C283.054 47.3003 285.409 45.5431 287.176 43.0536C291.076 37.8549 289.899 27.897 285.924 22.5519C284.6 20.7946 282.686 20.7214 281.509 22.6983C280.773 23.9431 280.11 25.4075 280.037 26.7254C279.816 33.6814 279.89 40.6373 279.816 47.52C279.816 47.8861 279.963 48.179 280.11 48.7648Z" fill="black"/>
<path d="M199.816 44.1519C202.686 41.5159 205.851 38.7336 209.163 35.7315C211.665 38.88 215.051 40.7837 219.319 41.0766C219.393 41.223 219.466 41.3695 219.614 41.5159C218.362 42.6875 217.258 44.0054 215.86 44.9573C214.756 45.6895 214.388 46.5681 214.388 47.8129C214.388 56.5993 214.388 65.3858 214.388 74.1722C214.388 74.9776 214.388 75.783 214.683 76.5152C217.258 84.2034 214.388 90.2074 209.31 94.0881C204.011 98.1152 197.976 99.7993 191.352 98.1152C189.66 97.6759 187.967 96.6508 186.495 95.699C182.668 93.2827 182.668 93.2827 179.135 95.3329C178.031 92.9898 179.724 89.1091 182.447 87.7912C184.949 86.5464 187.452 86.8393 189.586 88.8895C190.911 90.1342 192.088 91.5986 193.192 92.9898C196.21 96.6508 200.258 97.6759 204.085 95.5525C208.206 93.2827 209.825 89.1091 208.206 84.6427C206.808 80.8352 205.925 76.9546 206.145 72.8542C206.145 72.1952 206.072 71.6095 205.998 70.3647C204.085 72.0488 202.613 73.2936 201.141 74.6115C198.712 76.8081 196.283 79.078 193.855 81.3478C193.045 82.08 192.456 82.4461 191.647 81.2746C189.292 77.9064 186.201 76.0759 181.858 77.0278C181.711 76.8813 181.564 76.7349 181.49 76.5885C182.373 75.4902 183.33 74.3919 184.14 73.2203C184.581 72.6346 185.244 71.9756 185.244 71.3166C185.317 64.141 185.317 56.8922 185.244 49.7166C185.244 46.4949 183.845 44.2251 180.386 43.5661C180.018 43.4929 179.65 43.2 178.694 42.3946C179.871 41.5159 181.049 40.7105 182.153 39.6854C183.257 38.6603 184.213 37.4156 185.097 36.2441C185.833 35.2922 186.421 34.9993 187.672 35.4386C191.352 36.8298 193.045 39.6122 193.192 43.3464C193.413 48.3254 193.413 53.3776 193.487 58.3566C193.487 61.9444 193.413 65.5322 193.56 69.12C193.634 70.0719 194.296 71.0237 194.959 71.8291C195.695 72.7078 196.651 73.3668 197.461 74.2454C198.197 75.0508 198.786 75.1973 199.595 74.3919C199.89 74.099 200.184 73.7329 200.552 73.5132C205.63 70.7308 206.881 66.4108 206.292 60.9925C205.851 56.7458 206.145 52.4258 206.219 48.179C206.219 46.7146 205.851 45.6895 204.305 45.3234C202.76 45.0305 201.288 44.5912 199.816 44.1519Z" fill="black"/>
<path d="M334.719 70.5844C332.217 72.8542 329.862 74.9044 327.58 76.9546C325.888 78.4922 324.269 80.0298 322.649 81.5675C321.84 82.2997 321.251 82.4461 320.589 81.4942C318.234 78.1993 315.143 76.2224 310.8 77.1742C310.653 77.0278 310.579 76.8814 310.432 76.7349C311.242 75.7098 311.904 74.5383 312.861 73.6597C313.891 72.781 314.333 71.8292 314.333 70.5112C314.259 64.0678 314.407 57.5512 314.259 51.1078C314.186 46.861 313.229 44.6644 309.255 43.7125C308.887 43.6393 308.592 43.4197 308.077 43.2C308.445 42.7607 308.666 42.3214 308.96 42.0285C310.8 39.9783 312.567 37.9281 314.48 35.878C314.848 35.5119 315.584 35.219 315.952 35.2922C319.117 36.3173 321.251 38.2942 321.913 41.5892C322.281 43.6393 322.502 45.8359 322.502 47.9593C322.576 54.9153 322.576 61.8712 322.502 68.8271C322.502 70.2915 322.797 71.3166 324.121 72.1953C325.299 73.0007 326.256 74.099 327.507 75.2705C329.936 73.2203 332.291 71.1702 334.572 69.12C335.014 68.7539 335.087 67.8753 335.161 67.2895C335.235 60.7729 335.235 54.2563 335.161 47.7397C335.161 47.0075 334.499 45.9824 333.836 45.6895C332.291 45.0305 330.819 43.3464 328.832 45.1037C328.758 44.8841 328.684 44.6644 328.611 44.518C331.775 41.6624 334.94 38.8068 338.252 35.878C340.828 38.88 344.066 41.0034 348.408 41.2231C347.82 43.2 346.348 44.2983 344.802 45.177C343.625 45.9092 343.33 46.7146 343.33 47.9593C343.404 56.7458 343.33 65.5322 343.404 74.3186C343.404 75.5634 343.845 76.8081 344.14 78.0529C345.685 84.6427 343.698 90.061 338.399 94.0881C332.291 98.7742 325.52 100.458 318.086 97.4563C316.835 96.9437 315.658 95.9919 314.48 95.2597C311.242 93.2095 310.948 93.2095 308.151 95.6258C307.12 93.3559 308.077 90.3539 310.58 88.4502C312.861 86.6929 315.805 86.6929 318.013 88.6698C319.485 89.9878 320.81 91.379 321.987 92.9166C326.55 98.9939 333.247 96.9437 336.265 92.8434C338.031 90.4271 338.252 87.718 337.222 85.0088C335.529 80.6888 334.793 76.2224 335.087 71.6095C335.014 71.3898 334.94 71.2434 334.719 70.5844Z" fill="black"/>
<path d="M65.0598 73.44C63.4406 75.5634 61.9687 77.4671 60.5703 79.2976C60.276 79.6637 60.1288 80.0298 59.8344 80.3959C59.0984 81.421 58.2152 83.2515 57.6265 83.1783C55.9337 82.9586 54.0938 82.1532 52.6219 81.2013C49.8988 79.3708 49.0892 76.2224 48.0588 73.2935C45.8509 66.7769 43.643 60.2603 41.3615 53.8169C40.9199 52.499 39.9632 51.4007 39.0064 50.2291C38.4912 55.1349 38.6384 60.2603 34.3698 63.6285C32.6771 65.0196 30.6163 65.8983 28.7028 66.9966C28.5556 66.8502 28.482 66.7037 28.3348 66.4841C28.7764 65.0929 29.4388 63.7017 29.7332 62.3105C30.1012 60.6264 30.322 58.7959 30.322 57.0386C30.3956 48.6183 30.322 40.198 30.322 31.7776C30.322 25.4074 33.1186 20.7213 38.9328 17.8658C39.5952 17.5729 40.2576 17.3532 41.2879 16.9871C37.1665 24.3824 38.9328 31.9973 38.5648 39.3925C38.4176 41.5891 38.5648 43.859 38.5648 46.1288C38.7856 46.202 39.0064 46.2752 39.2272 46.3485C44.2318 36.0244 49.1628 25.7003 54.3146 15.0102C57.1849 18.3051 60.276 19.9891 63.8822 15.962C64.0294 16.4746 64.2502 16.8407 64.1766 17.1336C63.8086 20.5017 61.2327 25.7003 57.0377 27.3112C55.1978 28.0434 53.4314 27.8969 51.7387 27.0915C50.5611 26.579 50.046 26.8719 49.4572 27.9702C47.6173 31.9241 45.6301 35.878 43.7902 39.8319C43.5694 40.4176 43.643 41.5159 44.011 41.882C47.2493 44.4447 48.7212 48.0325 50.1932 51.6935C52.4747 57.4779 54.609 63.2624 56.8169 69.0468C56.8905 69.1932 56.9641 69.4129 57.0377 69.5593C59.3192 73.5132 60.4967 74.099 65.0598 73.44Z" fill="black"/>
<path d="M175.382 74.099C173.174 76.8081 171.04 79.444 168.905 81.9335C168.611 82.2264 167.801 82.3729 167.36 82.2264C163.901 81.2745 161.693 78.6386 161.472 74.9776C161.251 71.1701 161.251 67.2895 161.178 63.482C161.104 58.5762 161.178 53.5973 161.178 48.6915C161.178 47.7396 158.16 44.2983 157.351 44.2983C156.983 44.2983 156.541 44.5912 156.247 44.8108C154.039 46.6413 151.831 48.4718 149.696 50.4488C149.108 51.0346 148.592 52.1329 148.592 52.9383C148.519 58.503 148.519 64.0678 148.519 69.5593C148.519 70.7308 148.887 71.3898 150.138 71.8291C151.536 72.4149 152.788 73.3668 153.965 74.3186C154.259 74.5383 154.259 75.783 153.891 76.0759C151.684 78.0529 149.402 79.9566 147.121 81.9335C146.973 82.08 146.826 82.08 146.458 82.2264C143.661 78.5654 140.202 75.8562 135.124 76.1491C135.051 75.9295 135.051 75.783 134.977 75.5634C136.155 74.5383 137.259 73.2935 138.583 72.4881C139.982 71.6827 140.35 70.804 140.35 69.2664C140.276 63.1891 140.276 57.0386 140.35 50.9613C140.35 47.3735 139.614 45.1037 135.639 44.5912C135.419 44.5912 135.271 44.2983 134.83 44.0054C135.419 43.4929 135.86 43.1268 136.302 42.6142C138.289 40.4908 140.423 38.4407 142.263 36.244C143.146 35.219 143.661 34.9993 144.765 35.8779C147.121 38.0013 148.004 40.7105 148.298 43.6393C148.445 45.1769 148.519 46.7146 148.74 48.9112C154.554 44.1518 159.926 39.7586 165.446 35.219C166.918 38.7335 168.758 41.3695 172.806 41.0034C172.88 41.1498 172.953 41.2963 172.953 41.5159C172.144 42.541 171.334 43.4929 170.598 44.5912C170.083 45.4698 169.42 46.4949 169.42 47.4468C169.347 53.8169 169.347 60.1139 169.347 66.484C169.347 71.2434 170.083 72.2684 174.572 73.8061C174.867 73.8793 175.014 73.9525 175.382 74.099Z" fill="black"/>
<path d="M393.229 74.099C390.653 76.8813 388.224 79.7369 385.575 82.3729C385.28 82.6657 384.176 82.5193 383.735 82.2264C381.233 80.2495 380.349 77.3939 379.981 74.3918C379.908 73.5132 379.834 72.6346 379.834 71.7559C379.687 71.6827 379.54 71.5363 379.319 71.463C377.185 73.2935 375.05 75.1973 372.916 77.0278C370.782 78.8583 368.647 80.6888 366.366 82.5925C363.643 79.0047 360.625 76.1491 355.621 77.101C355.547 76.8813 355.474 76.7349 355.4 76.5152C356.136 75.7098 356.725 74.7579 357.534 74.099C358.638 73.2935 359.006 72.3417 359.006 70.9505C358.933 64.4339 359.006 57.9173 358.933 51.4007C358.933 50.0827 358.712 48.6915 358.344 47.4468C357.902 45.6895 356.651 44.518 354.811 44.0786C354.222 43.9322 353.56 43.7125 352.75 43.4196C353.118 42.8339 353.339 42.541 353.634 42.2481C355.4 40.2712 357.314 38.3674 359.006 36.2441C359.742 35.3654 360.257 35.219 361.288 35.6583C364.673 36.9763 366.44 39.4657 366.587 42.9071C366.881 50.6685 366.955 58.503 367.176 66.2644C367.176 67.5824 367.028 68.9735 367.249 70.2915C367.396 71.0969 367.985 71.9756 368.574 72.6346C369.163 73.2935 370.119 73.6596 370.708 74.3186C371.665 75.4169 372.475 75.4169 373.578 74.4651C375.124 73.0739 376.817 71.8291 378.509 70.6576C379.54 69.9254 379.834 69.0468 379.834 67.8752C379.761 61.3586 379.761 54.842 379.834 48.3254C379.834 47.0074 379.393 46.2752 378.215 45.8359C376.67 45.1769 375.271 43.7125 373.284 45.4698C373.21 45.2502 373.21 44.9573 373.137 44.7376C373.505 44.3715 373.799 44.0054 374.167 43.7125C376.743 41.3695 379.245 39.0264 381.895 36.7566C382.189 36.4637 383.146 36.3173 383.293 36.5369C385.796 39.539 389.034 41.0766 393.229 41.9552C391.978 43.1268 390.874 44.518 389.475 45.3966C388.298 46.202 387.856 46.9342 387.856 48.3254C387.93 55.0617 387.856 61.8712 387.856 68.6074C387.856 72.2685 388.887 73.44 392.493 74.1722C393.008 74.0258 393.229 74.099 393.229 74.099Z" fill="black"/>
<path d="M71.7571 41.7356C74.9218 39.7587 77.9393 37.8549 81.0303 35.9512C81.4719 36.8298 81.9871 38.0014 82.5759 39.0997C84.6366 42.9803 87.7277 43.6393 91.1131 40.9302C92.5115 39.7587 93.689 38.3675 95.0138 37.0495C95.4554 36.6102 95.8234 36.1709 96.4121 35.5119C97.4425 39.6122 100.018 41.0034 103.919 40.0515C103.993 40.198 104.14 40.4176 104.213 40.5641C103.404 41.6624 102.668 42.9071 101.638 43.7858C100.607 44.6644 100.313 45.5431 100.313 46.7878C100.386 53.5973 100.313 60.48 100.386 67.2895C100.386 69.9987 100.975 72.5614 103.919 73.6597C104.655 73.9525 105.465 73.9526 106.495 74.1722C105.98 74.9776 105.612 75.6366 105.17 76.2224C103.919 77.9064 102.521 79.4441 101.417 81.2014C100.313 82.8854 99.356 82.739 97.8841 81.7871C95.161 80.1031 93.689 77.6136 92.6587 74.3919C91.9963 74.9044 91.4075 75.1973 90.8924 75.6366C88.758 77.6868 86.6237 79.6637 84.563 81.7139C83.827 82.4461 83.1647 82.6658 82.1343 82.2265C76.9089 80.1031 72.7875 76.9546 71.3155 71.2434C70.2116 66.8502 71.5363 62.8963 74.1858 59.4549C75.6578 57.5512 77.5713 56.0136 79.4848 54.4759C80.5152 53.6705 80.5888 53.2312 79.8528 52.3526C77.4977 49.3505 75.1426 46.2753 72.7875 43.2732C72.3459 42.6142 71.9779 42.0285 71.7571 41.7356ZM76.2465 44.2251C76.1729 44.3715 76.0257 44.5912 75.9522 44.7376C78.0129 47.4468 80.1472 50.2292 82.2079 52.9383C84.2686 55.6475 86.4029 58.3566 88.758 61.4319C86.1085 61.7248 85.8142 59.6746 84.7838 58.6495C83.6798 57.5512 82.7231 56.2332 81.6927 54.9153C76.9825 61.2122 77.6449 71.9024 87.0653 74.758C89.4204 75.4902 92.0699 73.7329 92.0699 71.2434C92.1435 63.6285 92.0699 56.0136 92.0699 48.3987C92.0699 47.8129 91.7019 47.1539 91.3339 46.7146C90.598 45.7627 89.7148 44.8841 88.8316 44.0787C88.4636 43.7126 87.6541 43.4929 87.2125 43.6393C83.6062 45.1037 80.0736 46.2753 76.2465 44.2251Z" fill="black"/>
<path d="M130.782 74.2454C129.016 76.1492 127.249 77.8332 125.704 79.6637C123.422 82.4461 122.539 82.5193 119.816 79.9566C117.166 77.5403 116.725 74.3186 116.651 71.0969C116.431 63.9946 116.504 56.819 116.504 49.7166C116.504 48.3254 113.855 44.8841 112.53 44.8841C111.72 44.8841 110.911 45.3234 110.101 45.6163C110.028 45.4698 109.88 45.2502 109.807 45.1037C113.413 42.2481 117.019 39.3925 120.478 36.6834C121.656 37.7817 122.686 39.1729 124.085 39.8319C125.409 40.4908 127.176 40.4908 129.089 40.8569C129.384 42.6142 128.206 44.2983 126.66 45.3234C124.894 46.4949 124.6 47.8861 124.673 49.7898C124.747 55.4278 124.673 60.9925 124.673 66.6305C124.673 71.6827 125.63 72.9275 130.782 74.2454Z" fill="black"/>
<path d="M13.9834 72.4881C17.4425 66.2644 16.7801 60.0407 16.9273 53.8169C16.9273 52.3525 16.3385 51.9864 14.9402 51.9132C12.5115 51.84 10.966 53.0847 9.56761 55.0617C7.65408 52.3525 8.09567 49.6434 9.19962 47.0807C10.23 44.5912 12.3643 43.4196 15.0138 43.2C16.0441 43.1268 17.0009 43.1268 16.9273 41.6624C16.4121 34.2671 21.1223 30.7525 27.0837 27.9702C24.4342 36.903 25.759 45.9824 25.6854 54.9885C25.6118 63.0427 22.0791 68.461 15.161 72.0488C14.9402 72.1952 14.7194 72.1952 13.9834 72.4881Z" fill="black"/>
<path d="M256.412 71.9756C258.841 66.0447 257.516 59.8942 257.884 53.8901C257.958 52.3525 257.369 51.9864 255.897 51.9132C253.468 51.9132 251.187 51.9864 250.23 55.2081C248.758 52.2793 248.684 49.6434 249.273 47.0074C249.936 44.2983 251.849 43.2 255.382 43.1267C257.811 43.0535 257.884 43.0535 257.811 40.6373C257.59 35.6583 259.871 32.2901 264.213 30.0935C265.391 29.5078 266.569 28.9952 267.82 28.3362C267.893 28.7023 268.041 28.922 268.041 28.9952C266.201 32.0705 265.98 35.4386 265.98 38.88C266.053 45.2501 265.759 51.5471 266.053 57.9173C266.274 63.482 264.14 67.4359 259.503 70.2915C258.694 70.804 257.884 71.3166 257.001 71.8291C257.001 72.0488 256.78 71.9756 256.412 71.9756Z" fill="black"/>
<path d="M10.2299 81.5675C10.9659 80.5424 11.6283 79.5173 12.5114 78.5654C17.6632 73.2204 23.9926 70.2915 31.4259 70.2915C34.8849 70.2915 38.1232 71.2434 41.1407 73.0739C42.3182 73.8061 43.3486 75.5634 45.2621 73.5132C45.2621 73.7329 45.3357 74.0258 45.3357 74.2454C45.0413 74.6848 44.7469 75.1241 44.379 75.5634C42.3182 77.76 40.1839 79.8834 38.1968 82.08C37.4608 82.8854 36.7985 83.0319 35.8417 82.4461C30.2483 79.2244 24.1398 79.3709 18.0312 80.1763C15.5289 80.5424 13.1002 81.2746 10.5979 81.8604C10.5243 81.8604 10.3771 81.7139 10.2299 81.5675Z" fill="black"/>
<path d="M275.621 16.4014C274.591 18.1586 273.707 20.1356 272.383 21.6732C271.132 23.2108 269.439 24.3824 267.746 25.4807C265.391 27.0183 262.889 26.2129 260.534 25.4075C259.43 25.0414 258.326 24.602 257.222 24.3824C255.087 23.8698 253.1 24.1627 251.187 25.3342C250.672 25.6271 250.156 25.8468 249.568 26.1397C249.42 20.8678 255.087 14.7905 260.166 14.7173C261.343 14.7173 262.594 15.303 263.772 15.8156C264.802 16.2549 265.759 16.9871 266.789 17.4997C269.365 18.8176 271.72 18.598 274.002 16.7675C274.37 16.4746 274.738 16.2549 275.179 16.0353C275.327 16.1817 275.474 16.2549 275.621 16.4014Z" fill="black"/>
<path d="M32.6771 16.0339C31.5731 21.4522 25.6117 25.1865 20.2392 23.9417C18.5464 23.5756 16.9273 23.2095 15.2346 22.9166C12.8059 22.4773 10.4508 22.6237 8.31644 23.9417C8.02205 24.1614 7.58047 24.1614 6.55011 24.381C7.28608 22.7702 7.80126 21.5987 8.39004 20.5004C11.1867 15.8143 15.3082 13.9837 20.6071 15.0088C22.5943 15.3749 24.5814 15.8143 26.5685 16.0339C28.5556 16.1804 30.5428 16.0339 32.6771 16.0339Z" fill="black"/>
<path d="M112.824 28.7756C115.4 26.7254 117.976 24.7485 120.699 22.5518C121.067 23.0644 121.362 23.6502 121.877 24.0163C123.054 24.8217 124.305 25.8468 125.63 26.2129C127.176 26.579 127.176 27.0915 126.44 28.1166C123.864 31.9973 119.742 32.5098 116.21 29.5078C115.768 29.1417 115.179 28.8488 114.664 28.7756C114.149 28.7024 113.634 29.0685 113.119 29.2881C113.045 29.1417 112.898 28.922 112.824 28.7756Z" fill="black"/>
<path d="M20.54 91.7031C20.8096 91.7031 21.0381 91.7998 21.2256 91.9932C21.4189 92.1807 21.5156 92.4092 21.5156 92.6787C21.5156 92.9482 21.4189 93.1797 21.2256 93.373C21.0381 93.5605 20.8096 93.6543 20.54 93.6543C20.2705 93.6543 20.0391 93.5605 19.8457 93.373C19.6582 93.1797 19.5645 92.9482 19.5645 92.6787C19.5645 92.4092 19.6582 92.1807 19.8457 91.9932C20.0391 91.7998 20.2705 91.7031 20.54 91.7031ZM20.5225 98.2861C20.7979 98.2861 21.0293 98.3828 21.2168 98.5762C21.4102 98.7695 21.5068 99.001 21.5068 99.2705C21.5068 99.54 21.4102 99.7715 21.2168 99.9648C21.0234 100.152 20.792 100.246 20.5225 100.246C20.2529 100.246 20.0215 100.152 19.8281 99.9648C19.6406 99.7715 19.5469 99.54 19.5469 99.2705C19.5469 99.001 19.6406 98.7695 19.8281 98.5762C20.0215 98.3828 20.2529 98.2861 20.5225 98.2861ZM32.5547 87.502L28.2393 100.246H27.5361L31.8516 87.502H32.5547ZM35.4639 87.502V95.5176L37.5117 93.6455C37.9453 93.2471 38.1973 92.9951 38.2676 92.8896C38.3145 92.8193 38.3379 92.749 38.3379 92.6787C38.3379 92.5615 38.2881 92.4619 38.1885 92.3799C38.0947 92.292 37.9365 92.2422 37.7139 92.2305V91.9492H41.2119V92.2305C40.7314 92.2422 40.3301 92.3154 40.0078 92.4502C39.6914 92.585 39.3428 92.8252 38.9619 93.1709L36.8965 95.0781L38.9619 97.6885C39.5361 98.4092 39.9229 98.8662 40.1221 99.0596C40.4033 99.335 40.6494 99.5137 40.8604 99.5957C41.0068 99.6543 41.2617 99.6836 41.625 99.6836V100H37.7139V99.6836C37.9365 99.6777 38.0859 99.6455 38.1621 99.5869C38.2441 99.5225 38.2852 99.4346 38.2852 99.3232C38.2852 99.1885 38.168 98.9717 37.9336 98.6729L35.4639 95.5176V98.1895C35.4639 98.7109 35.499 99.0537 35.5693 99.2178C35.6455 99.3818 35.751 99.499 35.8857 99.5693C36.0205 99.6396 36.3135 99.6777 36.7646 99.6836V100H32.6689V99.6836C33.0791 99.6836 33.3867 99.6338 33.5918 99.5342C33.7148 99.4697 33.8086 99.3701 33.873 99.2354C33.9609 99.042 34.0049 98.708 34.0049 98.2334V90.9033C34.0049 89.9717 33.9844 89.4033 33.9434 89.1982C33.9023 88.9873 33.835 88.8438 33.7412 88.7676C33.6475 88.6855 33.5244 88.6445 33.3721 88.6445C33.249 88.6445 33.0645 88.6943 32.8184 88.7939L32.6689 88.4863L35.0596 87.502H35.4639ZM46.6436 98.8398C45.8174 99.4785 45.2988 99.8477 45.0879 99.9473C44.7715 100.094 44.4346 100.167 44.0771 100.167C43.5205 100.167 43.0605 99.9766 42.6973 99.5957C42.3398 99.2148 42.1611 98.7139 42.1611 98.0928C42.1611 97.7002 42.249 97.3604 42.4248 97.0732C42.665 96.6748 43.0811 96.2998 43.6729 95.9482C44.2705 95.5967 45.2607 95.1689 46.6436 94.665V94.3486C46.6436 93.5459 46.5146 92.9951 46.2568 92.6963C46.0049 92.3975 45.6357 92.248 45.1494 92.248C44.7803 92.248 44.4873 92.3477 44.2705 92.5469C44.0479 92.7461 43.9365 92.9746 43.9365 93.2324L43.9541 93.7422C43.9541 94.0117 43.8838 94.2197 43.7432 94.3662C43.6084 94.5127 43.4297 94.5859 43.207 94.5859C42.9902 94.5859 42.8115 94.5098 42.6709 94.3574C42.5361 94.2051 42.4688 93.9971 42.4688 93.7334C42.4688 93.2295 42.7266 92.7666 43.2422 92.3447C43.7578 91.9229 44.4814 91.7119 45.4131 91.7119C46.1279 91.7119 46.7139 91.832 47.1709 92.0723C47.5166 92.2539 47.7715 92.5381 47.9355 92.9248C48.041 93.1768 48.0938 93.6924 48.0938 94.4717V97.2051C48.0938 97.9727 48.1084 98.4443 48.1377 98.6201C48.167 98.79 48.2139 98.9043 48.2783 98.9629C48.3486 99.0215 48.4277 99.0508 48.5156 99.0508C48.6094 99.0508 48.6914 99.0303 48.7617 98.9893C48.8848 98.9131 49.1221 98.6992 49.4736 98.3477V98.8398C48.8174 99.7188 48.1904 100.158 47.5928 100.158C47.3057 100.158 47.0771 100.059 46.9072 99.8594C46.7373 99.6602 46.6494 99.3203 46.6436 98.8398ZM46.6436 98.2686V95.2012C45.7588 95.5527 45.1875 95.8018 44.9297 95.9482C44.4668 96.2061 44.1357 96.4756 43.9365 96.7568C43.7373 97.0381 43.6377 97.3457 43.6377 97.6797C43.6377 98.1016 43.7637 98.4531 44.0156 98.7344C44.2676 99.0098 44.5576 99.1475 44.8857 99.1475C45.3311 99.1475 45.917 98.8545 46.6436 98.2686ZM54.0439 100H49.9922V99.6748C50.3906 99.6572 50.625 99.6426 50.6953 99.6309C50.9473 99.5781 51.126 99.4492 51.2314 99.2441C51.3252 99.0625 51.3721 98.6846 51.3721 98.1104V93.8389C51.3721 93.4111 51.3633 93.1416 51.3457 93.0303C51.293 92.6904 51.1582 92.4766 50.9414 92.3887C50.7891 92.3242 50.4727 92.2891 49.9922 92.2832V91.9492H54.0439V92.2832C53.4229 92.2832 53.0508 92.4385 52.9277 92.749C52.8633 92.9131 52.8311 93.2764 52.8311 93.8389V98.1104C52.8311 98.5674 52.8369 98.834 52.8486 98.9102C52.8955 99.2207 53.0303 99.4316 53.2529 99.543C53.4346 99.6309 53.6982 99.6748 54.0439 99.6748V100ZM57.4365 93.417C58.3799 92.2803 59.2793 91.7119 60.1348 91.7119C60.5742 91.7119 60.9521 91.8232 61.2686 92.0459C61.585 92.2627 61.8369 92.623 62.0244 93.127C62.1533 93.4785 62.2178 94.0176 62.2178 94.7441V98.1807C62.2178 98.6904 62.2588 99.0361 62.3408 99.2178C62.4053 99.3643 62.5078 99.4785 62.6484 99.5605C62.7949 99.6426 63.0615 99.6836 63.4482 99.6836V100H59.4668V99.6836H59.6338C60.0088 99.6836 60.2695 99.6279 60.416 99.5166C60.5684 99.3994 60.6738 99.2295 60.7324 99.0068C60.7559 98.9189 60.7676 98.6436 60.7676 98.1807V94.8848C60.7676 94.1523 60.6709 93.6221 60.4775 93.2939C60.29 92.96 59.9707 92.793 59.5195 92.793C58.8223 92.793 58.1279 93.1738 57.4365 93.9355V98.1807C57.4365 98.7256 57.4688 99.0625 57.5332 99.1914C57.6152 99.3613 57.7266 99.4873 57.8672 99.5693C58.0137 99.6455 58.3066 99.6836 58.7461 99.6836V100H54.7646V99.6836H54.9404C55.3506 99.6836 55.626 99.5811 55.7666 99.376C55.9131 99.165 55.9863 98.7666 55.9863 98.1807V95.1924C55.9863 94.2256 55.9629 93.6367 55.916 93.4258C55.875 93.2148 55.8076 93.0713 55.7139 92.9951C55.626 92.9189 55.5059 92.8809 55.3535 92.8809C55.1895 92.8809 54.9932 92.9248 54.7646 93.0127L54.6328 92.6963L57.0586 91.7119H57.4365V93.417ZM66.1377 87.502C66.3838 87.502 66.5918 87.5898 66.7617 87.7656C66.9375 87.9355 67.0254 88.1436 67.0254 88.3896C67.0254 88.6357 66.9375 88.8467 66.7617 89.0225C66.5918 89.1982 66.3838 89.2861 66.1377 89.2861C65.8916 89.2861 65.6807 89.1982 65.5049 89.0225C65.3291 88.8467 65.2412 88.6357 65.2412 88.3896C65.2412 88.1436 65.3262 87.9355 65.4961 87.7656C65.6719 87.5898 65.8857 87.502 66.1377 87.502ZM66.8672 91.7119V98.1807C66.8672 98.6846 66.9023 99.0215 66.9727 99.1914C67.0488 99.3555 67.1572 99.4785 67.2979 99.5605C67.4443 99.6426 67.708 99.6836 68.0889 99.6836V100H64.1777V99.6836C64.5703 99.6836 64.834 99.6455 64.9688 99.5693C65.1035 99.4932 65.209 99.3672 65.2852 99.1914C65.3672 99.0156 65.4082 98.6787 65.4082 98.1807V95.0781C65.4082 94.2051 65.3818 93.6396 65.3291 93.3818C65.2881 93.1943 65.2236 93.0654 65.1357 92.9951C65.0479 92.9189 64.9277 92.8809 64.7754 92.8809C64.6113 92.8809 64.4121 92.9248 64.1777 93.0127L64.0547 92.6963L66.4805 91.7119H66.8672ZM73.582 87.502L69.2666 100.246H68.5635L72.8789 87.502H73.582Z" fill="black"/>
</svg>
