<?xml version="1.0" encoding="utf-8"?>
<!-- Generator: Adobe Illustrator 24.0.1, SVG Export Plug-In . SVG Version: 6.00 Build 0)  -->
<svg version="1.1" id="Layer_1" xmlns="http://www.w3.org/2000/svg" xmlns:xlink="http://www.w3.org/1999/xlink" x="0px" y="0px"
	 viewBox="0 0 543.5 147.5" style="enable-background:new 0 0 543.5 147.5;" xml:space="preserve">
<g>
	<g>
		<path d="M388.6,64.5c2.2,1.2,4.5,2.1,6.4,3.5c4.3,3.3,5.4,8.4,6.4,13.4c0.9,4.1,1.7,8.3,2.7,12.4c1,3.9,2.9,7.1,7.6,7.4
			c-2,4.3-3.9,8.4-5.9,12.7c-7.5-0.8-11.4-5.7-13.6-13c-2.2,2.3-4,4.1-5.8,6c-1.1,1.2-2,2.5-3,3.7c-3.2,3.6-2,3.4-6.3,1.3
			c-10.3-5.2-20.8-5.1-31.2-0.2c-1,0.5-2,0.9-3.2,1.2c2.4-5,5.8-9.1,10.5-12c11.1-6.7,22.4-6.3,33.6-0.2c0.8,0.4,2.2,1,2.5,0.7
			c1.1-1,2.6-2.5,2.5-3.6c-1-8.6-2.5-17.1-5.7-25.2c-0.3-0.8-0.7-1.7-1.3-2.4c-0.5-0.7-1.6-1.7-1.9-1.6c-1,0.5-2.3,1.4-2.6,2.3
			c-0.5,1.8-0.5,3.8-0.6,5.7c-0.4,7.7-4.5,12.4-11.7,14.7c-0.8,0.2-1.5,0.5-2.9,1c0.9-1.8,1.9-2.9,2.1-4.1c0.6-3.3,1.2-6.7,1.3-10.1
			c0.2-9.9,0.4-19.8,0-29.7c-0.4-8.2,2.5-14.1,9.7-18.1c4.9-2.7,9.5-5.7,14.3-8.5c3-1.7,4.9-1.3,7.1,1.5c3.5,4.5,5.1,9.6,4.7,15.1
			c-0.7,10.4-5.4,18.7-14,24.7C389.7,63.5,389.2,64,388.6,64.5z M380.6,66.6c4-2,7.2-4.4,9.6-7.8c5.3-7.1,3.7-20.7-1.7-28
			c-1.8-2.4-4.4-2.5-6,0.2c-1,1.7-1.9,3.7-2,5.5c-0.3,9.5-0.2,19-0.3,28.4C380.2,65.4,380.4,65.8,380.6,66.6z"/>
		<path d="M271.5,60.3c3.9-3.6,8.2-7.4,12.7-11.5c3.4,4.3,8,6.9,13.8,7.3c0.1,0.2,0.2,0.4,0.4,0.6c-1.7,1.6-3.2,3.4-5.1,4.7
			c-1.5,1-2,2.2-2,3.9c0,12,0,24,0,36c0,1.1,0,2.2,0.4,3.2c3.5,10.5-0.4,18.7-7.3,24c-7.2,5.5-15.4,7.8-24.4,5.5
			c-2.3-0.6-4.6-2-6.6-3.3c-5.2-3.3-5.2-3.3-10-0.5c-1.5-3.2,0.8-8.5,4.5-10.3c3.4-1.7,6.8-1.3,9.7,1.5c1.8,1.7,3.4,3.7,4.9,5.6
			c4.1,5,9.6,6.4,14.8,3.5c5.6-3.1,7.8-8.8,5.6-14.9c-1.9-5.2-3.1-10.5-2.8-16.1c0-0.9-0.1-1.7-0.2-3.4c-2.6,2.3-4.6,4-6.6,5.8
			c-3.3,3-6.6,6.1-9.9,9.2c-1.1,1-1.9,1.5-3-0.1c-3.2-4.6-7.4-7.1-13.3-5.8c-0.2-0.2-0.4-0.4-0.5-0.6c1.2-1.5,2.5-3,3.6-4.6
			c0.6-0.8,1.5-1.7,1.5-2.6c0.1-9.8,0.1-19.7,0-29.5c0-4.4-1.9-7.5-6.6-8.4c-0.5-0.1-1-0.5-2.3-1.6c1.6-1.2,3.2-2.3,4.7-3.7
			c1.5-1.4,2.8-3.1,4-4.7c1-1.3,1.8-1.7,3.5-1.1c5,1.9,7.3,5.7,7.5,10.8c0.3,6.8,0.3,13.7,0.4,20.5c0,4.9-0.1,9.8,0.1,14.7
			c0.1,1.3,1,2.6,1.9,3.7c1,1.2,2.3,2.1,3.4,3.3c1,1.1,1.8,1.3,2.9,0.2c0.4-0.4,0.8-0.9,1.3-1.2c6.9-3.8,8.6-9.7,7.8-17.1
			c-0.6-5.8-0.2-11.7-0.1-17.5c0-2-0.5-3.4-2.6-3.9C275.5,61.5,273.5,60.9,271.5,60.3z"/>
		<path d="M454.8,96.4c-3.4,3.1-6.6,5.9-9.7,8.7c-2.3,2.1-4.5,4.2-6.7,6.3c-1.1,1-1.9,1.2-2.8-0.1c-3.2-4.5-7.4-7.2-13.3-5.9
			c-0.2-0.2-0.3-0.4-0.5-0.6c1.1-1.4,2-3,3.3-4.2c1.4-1.2,2-2.5,2-4.3c-0.1-8.8,0.1-17.7-0.1-26.5c-0.1-5.8-1.4-8.8-6.8-10.1
			c-0.5-0.1-0.9-0.4-1.6-0.7c0.5-0.6,0.8-1.2,1.2-1.6c2.5-2.8,4.9-5.6,7.5-8.4c0.5-0.5,1.5-0.9,2-0.8c4.3,1.4,7.2,4.1,8.1,8.6
			c0.5,2.8,0.8,5.8,0.8,8.7c0.1,9.5,0.1,19,0,28.5c0,2,0.4,3.4,2.2,4.6c1.6,1.1,2.9,2.6,4.6,4.2c3.3-2.8,6.5-5.6,9.6-8.4
			c0.6-0.5,0.7-1.7,0.8-2.5c0.1-8.9,0.1-17.8,0-26.7c0-1-0.9-2.4-1.8-2.8c-2.1-0.9-4.1-3.2-6.8-0.8c-0.1-0.3-0.2-0.6-0.3-0.8
			c4.3-3.9,8.6-7.8,13.1-11.8c3.5,4.1,7.9,7,13.8,7.3c-0.8,2.7-2.8,4.2-4.9,5.4c-1.6,1-2,2.1-2,3.8c0.1,12,0,24,0.1,36
			c0,1.7,0.6,3.4,1,5.1c2.1,9-0.6,16.4-7.8,21.9c-8.3,6.4-17.5,8.7-27.6,4.6c-1.7-0.7-3.3-2-4.9-3c-4.4-2.8-4.8-2.8-8.6,0.5
			c-1.4-3.1-0.1-7.2,3.3-9.8c3.1-2.4,7.1-2.4,10.1,0.3c2,1.8,3.8,3.7,5.4,5.8c6.2,8.3,15.3,5.5,19.4-0.1c2.4-3.3,2.7-7,1.3-10.7
			c-2.3-5.9-3.3-12-2.9-18.3C455.2,97.5,455.1,97.3,454.8,96.4z"/>
		<path d="M88.4,100.3c-2.2,2.9-4.2,5.5-6.1,8c-0.4,0.5-0.6,1-1,1.5c-1,1.4-2.2,3.9-3,3.8c-2.3-0.3-4.8-1.4-6.8-2.7
			c-3.7-2.5-4.8-6.8-6.2-10.8c-3-8.9-6-17.8-9.1-26.6c-0.6-1.8-1.9-3.3-3.2-4.9c-0.7,6.7-0.5,13.7-6.3,18.3
			c-2.3,1.9-5.1,3.1-7.7,4.6c-0.2-0.2-0.3-0.4-0.5-0.7c0.6-1.9,1.5-3.8,1.9-5.7c0.5-2.3,0.8-4.8,0.8-7.2c0.1-11.5,0-23,0-34.5
			c0-8.7,3.8-15.1,11.7-19c0.9-0.4,1.8-0.7,3.2-1.2c-5.6,10.1-3.2,20.5-3.7,30.6c-0.2,3,0,6.1,0,9.2c0.3,0.1,0.6,0.2,0.9,0.3
			c6.8-14.1,13.5-28.2,20.5-42.8c3.9,4.5,8.1,6.8,13,1.3c0.2,0.7,0.5,1.2,0.4,1.6c-0.5,4.6-4,11.7-9.7,13.9c-2.5,1-4.9,0.8-7.2-0.3
			c-1.6-0.7-2.3-0.3-3.1,1.2c-2.5,5.4-5.2,10.8-7.7,16.2c-0.3,0.8-0.2,2.3,0.3,2.8c4.4,3.5,6.4,8.4,8.4,13.4c3.1,7.9,6,15.8,9,23.7
			c0.1,0.2,0.2,0.5,0.3,0.7C80.6,100.4,82.2,101.2,88.4,100.3z"/>
		<path d="M238.3,101.2c-3,3.7-5.9,7.3-8.8,10.7c-0.4,0.4-1.5,0.6-2.1,0.4c-4.7-1.3-7.7-4.9-8-9.9c-0.3-5.2-0.3-10.5-0.4-15.7
			c-0.1-6.7,0-13.5,0-20.2c0-1.3-4.1-6-5.2-6c-0.5,0-1.1,0.4-1.5,0.7c-3,2.5-6,5-8.9,7.7c-0.8,0.8-1.5,2.3-1.5,3.4
			c-0.1,7.6-0.1,15.2-0.1,22.7c0,1.6,0.5,2.5,2.2,3.1c1.9,0.8,3.6,2.1,5.2,3.4c0.4,0.3,0.4,2-0.1,2.4c-3,2.7-6.1,5.3-9.2,8
			c-0.2,0.2-0.4,0.2-0.9,0.4c-3.8-5-8.5-8.7-15.4-8.3c-0.1-0.3-0.1-0.5-0.2-0.8c1.6-1.4,3.1-3.1,4.9-4.2c1.9-1.1,2.4-2.3,2.4-4.4
			c-0.1-8.3-0.1-16.7,0-25c0-4.9-1-8-6.4-8.7c-0.3,0-0.5-0.4-1.1-0.8c0.8-0.7,1.4-1.2,2-1.9c2.7-2.9,5.6-5.7,8.1-8.7
			c1.2-1.4,1.9-1.7,3.4-0.5c3.2,2.9,4.4,6.6,4.8,10.6c0.2,2.1,0.3,4.2,0.6,7.2c7.9-6.5,15.2-12.5,22.7-18.7c2,4.8,4.5,8.4,10,7.9
			c0.1,0.2,0.2,0.4,0.2,0.7c-1.1,1.4-2.2,2.7-3.2,4.2c-0.7,1.2-1.6,2.6-1.6,3.9c-0.1,8.7-0.1,17.3-0.1,26c0,6.5,1,7.9,7.1,10
			C237.6,100.9,237.8,101,238.3,101.2z"/>
		<path d="M534.3,101.2c-3.5,3.8-6.8,7.7-10.4,11.3c-0.4,0.4-1.9,0.2-2.5-0.2c-3.4-2.7-4.6-6.6-5.1-10.7c-0.1-1.2-0.2-2.4-0.2-3.6
			c-0.2-0.1-0.4-0.3-0.7-0.4c-2.9,2.5-5.8,5.1-8.7,7.6c-2.9,2.5-5.8,5-8.9,7.6c-3.7-4.9-7.8-8.8-14.6-7.5c-0.1-0.3-0.2-0.5-0.3-0.8
			c1-1.1,1.8-2.4,2.9-3.3c1.5-1.1,2-2.4,2-4.3c-0.1-8.9,0-17.8-0.1-26.7c0-1.8-0.3-3.7-0.8-5.4c-0.6-2.4-2.3-4-4.8-4.6
			c-0.8-0.2-1.7-0.5-2.8-0.9c0.5-0.8,0.8-1.2,1.2-1.6c2.4-2.7,5-5.3,7.3-8.2c1-1.2,1.7-1.4,3.1-0.8c4.6,1.8,7,5.2,7.2,9.9
			c0.4,10.6,0.5,21.3,0.8,31.9c0,1.8-0.2,3.7,0.1,5.5c0.2,1.1,1,2.3,1.8,3.2c0.8,0.9,2.1,1.4,2.9,2.3c1.3,1.5,2.4,1.5,3.9,0.2
			c2.1-1.9,4.4-3.6,6.7-5.2c1.4-1,1.8-2.2,1.8-3.8c-0.1-8.9-0.1-17.8,0-26.7c0-1.8-0.6-2.8-2.2-3.4c-2.1-0.9-4-2.9-6.7-0.5
			c-0.1-0.3-0.1-0.7-0.2-1c0.5-0.5,0.9-1,1.4-1.4c3.5-3.2,6.9-6.4,10.5-9.5c0.4-0.4,1.7-0.6,1.9-0.3c3.4,4.1,7.8,6.2,13.5,7.4
			c-1.7,1.6-3.2,3.5-5.1,4.7c-1.6,1.1-2.2,2.1-2.2,4c0.1,9.2,0,18.5,0,27.7c0,5,1.4,6.6,6.3,7.6C534,101.1,534.3,101.2,534.3,101.2z
			"/>
		<path d="M97.5,57c4.3-2.7,8.4-5.3,12.6-7.9c0.6,1.2,1.3,2.8,2.1,4.3c2.8,5.3,7,6.2,11.6,2.5c1.9-1.6,3.5-3.5,5.3-5.3
			c0.6-0.6,1.1-1.2,1.9-2.1c1.4,5.6,4.9,7.5,10.2,6.2c0.1,0.2,0.3,0.5,0.4,0.7c-1.1,1.5-2.1,3.2-3.5,4.4c-1.4,1.2-1.8,2.4-1.8,4.1
			c0.1,9.3,0,18.7,0.1,28c0,3.7,0.8,7.2,4.8,8.7c1,0.4,2.1,0.4,3.5,0.7c-0.7,1.1-1.2,2-1.8,2.8c-1.7,2.3-3.6,4.4-5.1,6.8
			c-1.5,2.3-2.8,2.1-4.8,0.8c-3.7-2.3-5.7-5.7-7.1-10.1c-0.9,0.7-1.7,1.1-2.4,1.7c-2.9,2.8-5.8,5.5-8.6,8.3c-1,1-1.9,1.3-3.3,0.7
			c-7.1-2.9-12.7-7.2-14.7-15c-1.5-6,0.3-11.4,3.9-16.1c2-2.6,4.6-4.7,7.2-6.8c1.4-1.1,1.5-1.7,0.5-2.9c-3.2-4.1-6.4-8.3-9.6-12.4
			C98.3,58.2,97.8,57.4,97.5,57z M103.6,60.4c-0.1,0.2-0.3,0.5-0.4,0.7c2.8,3.7,5.7,7.5,8.5,11.2c2.8,3.7,5.7,7.4,8.9,11.6
			c-3.6,0.4-4-2.4-5.4-3.8c-1.5-1.5-2.8-3.3-4.2-5.1c-6.4,8.6-5.5,23.2,7.3,27.1c3.2,1,6.8-1.4,6.8-4.8c0.1-10.4,0-20.8,0-31.2
			c0-0.8-0.5-1.7-1-2.3c-1-1.3-2.2-2.5-3.4-3.6c-0.5-0.5-1.6-0.8-2.2-0.6C113.6,61.6,108.8,63.2,103.6,60.4z"/>
		<path d="M177.7,101.4c-2.4,2.6-4.8,4.9-6.9,7.4c-3.1,3.8-4.3,3.9-8,0.4c-3.6-3.3-4.2-7.7-4.3-12.1c-0.3-9.7-0.2-19.5-0.2-29.2
			c0-1.9-3.6-6.6-5.4-6.6c-1.1,0-2.2,0.6-3.3,1c-0.1-0.2-0.3-0.5-0.4-0.7c4.9-3.9,9.8-7.8,14.5-11.5c1.6,1.5,3,3.4,4.9,4.3
			c1.8,0.9,4.2,0.9,6.8,1.4c0.4,2.4-1.2,4.7-3.3,6.1c-2.4,1.6-2.8,3.5-2.7,6.1c0.1,7.7,0,15.3,0,23
			C169.4,97.9,170.7,99.6,177.7,101.4z"/>
		<path d="M19,99c4.7-8.5,3.8-17,4-25.5c0-2-0.8-2.5-2.7-2.6c-3.3-0.1-5.4,1.6-7.3,4.3c-2.6-3.7-2-7.4-0.5-10.9
			c1.4-3.4,4.3-5,7.9-5.3c1.4-0.1,2.7-0.1,2.6-2.1c-0.7-10.1,5.7-14.9,13.8-18.7c-3.6,12.2-1.8,24.6-1.9,36.9
			C34.8,86.1,30,93.5,20.6,98.4C20.3,98.6,20,98.6,19,99z"/>
		<path d="M348.4,98.3c3.3-8.1,1.5-16.5,2-24.7c0.1-2.1-0.7-2.6-2.7-2.7c-3.3,0-6.4,0.1-7.7,4.5c-2-4-2.1-7.6-1.3-11.2
			c0.9-3.7,3.5-5.2,8.3-5.3c3.3-0.1,3.4-0.1,3.3-3.4c-0.3-6.8,2.8-11.4,8.7-14.4c1.6-0.8,3.2-1.5,4.9-2.4c0.1,0.5,0.3,0.8,0.3,0.9
			c-2.5,4.2-2.8,8.8-2.8,13.5c0.1,8.7-0.3,17.3,0.1,26c0.3,7.6-2.6,13-8.9,16.9c-1.1,0.7-2.2,1.4-3.4,2.1
			C349.2,98.4,348.9,98.3,348.4,98.3z"/>
		<path d="M13.9,111.4c1-1.4,1.9-2.8,3.1-4.1c7-7.3,15.6-11.3,25.7-11.3c4.7,0,9.1,1.3,13.2,3.8c1.6,1,3,3.4,5.6,0.6
			c0,0.3,0.1,0.7,0.1,1c-0.4,0.6-0.8,1.2-1.3,1.8c-2.8,3-5.7,5.9-8.4,8.9c-1,1.1-1.9,1.3-3.2,0.5c-7.6-4.4-15.9-4.2-24.2-3.1
			c-3.4,0.5-6.7,1.5-10.1,2.3C14.3,111.8,14.1,111.6,13.9,111.4z"/>
		<path d="M374.5,22.4c-1.4,2.4-2.6,5.1-4.4,7.2c-1.7,2.1-4,3.7-6.3,5.2c-3.2,2.1-6.6,1-9.8-0.1c-1.5-0.5-3-1.1-4.5-1.4
			c-2.9-0.7-5.6-0.3-8.2,1.3c-0.7,0.4-1.4,0.7-2.2,1.1c-0.2-7.2,7.5-15.5,14.4-15.6c1.6,0,3.3,0.8,4.9,1.5c1.4,0.6,2.7,1.6,4.1,2.3
			c3.5,1.8,6.7,1.5,9.8-1c0.5-0.4,1-0.7,1.6-1C374.1,22.1,374.3,22.2,374.5,22.4z"/>
		<path d="M44.4,21.9c-1.5,7.4-9.6,12.5-16.9,10.8c-2.3-0.5-4.5-1-6.8-1.4c-3.3-0.6-6.5-0.4-9.4,1.4c-0.4,0.3-1,0.3-2.4,0.6
			c1-2.2,1.7-3.8,2.5-5.3c3.8-6.4,9.4-8.9,16.6-7.5c2.7,0.5,5.4,1.1,8.1,1.4C38.8,22.1,41.5,21.9,44.4,21.9z"/>
		<path d="M153.3,39.3c3.5-2.8,7-5.5,10.7-8.5c0.5,0.7,0.9,1.5,1.6,2c1.6,1.1,3.3,2.5,5.1,3c2.1,0.5,2.1,1.2,1.1,2.6
			c-3.5,5.3-9.1,6-13.9,1.9c-0.6-0.5-1.4-0.9-2.1-1c-0.7-0.1-1.4,0.4-2.1,0.7C153.6,39.8,153.4,39.5,153.3,39.3z"/>
	</g>
</g>
</svg>
